<svg version="1.1" id="Layer_1" xmlns="http://www.w3.org/2000/svg" xmlns:xlink="http://www.w3.org/1999/xlink" x="0px" y="0px"
	 width="100%" viewBox="0 0 367 423" enable-background="new 0 0 367 423" xml:space="preserve">
<path fill="#FDFDFD" opacity="1.000000" stroke="none" 
	d="
M368.000000,106.000000 
	C368.000000,132.687561 368.000000,159.375122 367.752136,186.182098 
	C364.984528,187.868988 362.489899,189.478668 359.940948,190.997192 
	C339.421600,203.221619 318.881989,215.412155 298.373718,227.655075 
	C294.131165,230.187775 292.442566,238.261993 295.096466,242.686569 
	C297.503052,246.698914 300.547760,246.863556 306.667145,243.279831 
	C321.702484,234.474625 336.778381,225.737228 351.740295,216.808823 
	C356.890076,213.735718 361.721619,210.013794 368.000000,214.000000 
	C368.000000,248.687561 368.000000,283.375122 367.715271,318.242279 
	C365.629700,319.603485 363.877625,320.868530 362.020874,321.954651 
	C305.583282,354.968414 249.131638,387.958313 192.715591,421.008911 
	C191.606842,421.658478 190.896301,422.987793 190.000000,424.000000 
	C187.299988,424.000000 184.599976,424.000000 181.754974,423.715454 
	C180.743027,422.698029 179.963043,421.815216 178.996277,421.254395 
	C159.312668,409.836487 139.659622,398.363770 119.863541,387.143616 
	C115.857399,384.872925 114.334709,382.117279 114.367912,377.559570 
	C114.540314,353.895477 114.153503,330.223633 114.624596,306.567657 
	C114.769180,299.307434 111.860252,295.446167 105.718689,292.877411 
	C101.607330,291.157806 97.988564,292.574921 96.805336,296.861572 
	C96.328789,298.588043 96.280403,300.471405 96.277214,302.283783 
	C96.242271,322.115936 96.282295,341.948242 96.238281,361.780365 
	C96.224586,367.949860 91.640549,370.600098 86.129456,367.734375 
	C85.099953,367.199005 84.112602,366.582703 83.104721,366.005615 
	C55.736553,350.336945 28.368279,334.668457 1.000002,319.000000 
	C1.000000,248.312439 1.000000,177.624878 1.310578,106.715179 
	C3.674458,105.101341 5.654147,103.583252 7.792584,102.337723 
	C26.724100,91.311150 45.747139,80.439667 64.585693,69.257133 
	C68.729271,66.797508 72.026939,66.914734 76.055740,69.322388 
	C97.145996,81.926170 118.443710,94.185112 139.448746,106.927521 
	C144.514435,110.000549 148.258774,109.741348 152.943130,106.375778 
	C160.703903,100.799873 160.878967,97.021645 152.714081,92.220581 
	C135.683670,82.206459 118.612350,72.261932 101.569420,62.269073 
	C93.394958,57.476101 93.521606,52.579269 101.848633,47.758381 
	C127.002953,33.195427 152.149857,18.619589 177.259781,3.980372 
	C178.373749,3.330923 179.095535,2.008797 180.000000,1.000001 
	C182.700012,1.000000 185.400024,1.000000 188.241577,1.279341 
	C189.683899,2.525846 190.904037,3.632076 192.297150,4.440080 
	C243.384277,34.070595 294.482849,63.681412 345.593536,93.271248 
	C353.027222,97.574875 360.529480,101.760025 368.000000,106.000000 
M105.604424,183.094009 
	C107.897675,183.801071 110.184158,185.094070 112.485268,185.120667 
	C128.126694,185.301392 143.771240,185.193054 159.414688,185.224152 
	C167.770859,185.240753 169.222534,186.738144 169.223526,195.125153 
	C169.227783,230.772461 169.221802,266.419769 169.229126,302.067078 
	C169.230240,307.497284 177.599869,315.912933 183.084595,316.003876 
	C183.904648,316.017456 184.783401,315.991089 185.540863,315.720093 
	C191.056320,313.746735 196.819916,305.478210 196.820221,299.622131 
	C196.822083,264.307983 196.816666,228.993820 196.825104,193.679672 
	C196.826706,186.977386 198.617615,185.221878 205.411713,185.218048 
	C221.236450,185.209137 237.062714,185.092499 252.885010,185.288498 
	C257.756134,185.348831 260.230927,183.398087 262.329224,179.022247 
	C265.151733,173.136078 265.304688,167.858292 262.713043,161.908340 
	C259.724579,155.047226 259.462952,154.512833 251.723267,154.512573 
	C221.073242,154.511566 190.423218,154.512161 159.773193,154.512161 
	C143.948456,154.512161 128.121521,154.381760 112.301247,154.647537 
	C109.822670,154.689178 106.161530,155.844803 105.132103,157.664673 
	C101.588081,163.929932 97.761337,170.576157 102.969711,177.985794 
	C103.910362,179.323990 104.410530,180.971786 105.604424,183.094009 
M57.974846,266.500000 
	C57.974850,256.174805 57.972729,245.849594 57.975479,235.524384 
	C57.977943,226.287949 62.103790,223.832764 70.174500,228.296631 
	C82.809029,235.284698 95.420708,242.314087 108.058929,249.295471 
	C117.144043,254.314102 126.256630,259.282959 135.999771,264.626587 
	C135.999771,259.197296 135.859695,254.583740 136.039917,249.982758 
	C136.213669,245.546509 134.627853,242.572357 130.632645,240.256470 
	C107.651512,226.934937 84.809464,213.373657 61.874882,199.971313 
	C58.536846,198.020660 56.936203,195.595093 56.985680,191.548599 
	C57.172966,176.229904 57.155468,160.906540 56.994118,145.587250 
	C56.954155,141.792969 58.297005,139.324509 61.513958,137.467941 
	C66.982590,134.311905 72.549667,131.250916 77.636307,127.547012 
	C79.572311,126.137299 81.468239,122.998001 81.341667,120.762520 
	C81.033737,115.323845 69.049149,110.010117 64.273315,112.801613 
	C56.960419,117.076019 49.794994,121.610519 42.393631,125.722626 
	C38.541424,127.862869 37.037766,130.778275 37.158199,135.035080 
	C37.454350,145.502594 37.736832,155.974564 37.754532,166.445190 
	C37.821819,206.246353 37.966122,246.049316 37.617645,285.847534 
	C37.552547,293.281464 39.382721,297.926605 46.477100,301.046173 
	C53.914841,304.316711 57.926437,302.308044 57.965530,293.978638 
	C58.006950,285.152588 57.974842,276.326233 57.974846,266.500000 
M316.580444,305.047668 
	C318.456421,303.981964 320.232544,302.652557 322.226196,301.897583 
	C329.628845,299.094360 331.809631,293.754517 331.037964,286.191742 
	C330.367981,279.625275 326.339386,276.931488 320.617096,280.171326 
	C312.373535,284.838684 304.213776,289.654144 296.020172,294.409729 
	C285.673798,300.414795 275.375183,306.504150 264.965912,312.398102 
	C259.271851,315.622162 254.721497,312.881409 254.552673,306.394958 
	C254.405609,300.744507 254.105057,295.095306 254.083023,289.444763 
	C254.018723,272.948975 254.087845,256.452728 254.043427,239.956787 
	C254.029175,234.664871 251.352463,231.511963 247.405014,231.853439 
	C241.468887,232.366989 235.069031,239.308334 235.067856,245.264450 
	C235.062607,271.591461 235.001266,297.918793 235.134842,324.245117 
	C235.154892,328.196167 233.943069,330.819275 230.476929,332.787628 
	C216.752426,340.581696 203.067780,348.448914 189.473694,356.467560 
	C185.883347,358.585358 182.760330,358.557739 179.252869,356.464417 
	C173.835114,353.231079 168.263824,350.255829 162.778900,347.133728 
	C159.538864,345.289459 156.660187,345.693909 154.339249,348.586426 
	C150.938644,352.824524 152.784378,363.104584 157.462570,365.921509 
	C164.863388,370.377838 172.365219,374.666840 179.751282,379.147003 
	C182.656967,380.909515 185.240265,380.740295 188.128372,379.071533 
	C230.706558,354.470062 273.315460,329.921722 316.580444,305.047668 
M237.422318,123.909805 
	C243.013123,120.319153 248.732620,116.910339 254.150558,113.075455 
	C257.914612,110.411240 261.130524,110.297729 265.101440,112.742111 
	C278.398499,120.927414 291.818115,128.917740 305.300964,136.794189 
	C308.710358,138.785904 310.333221,141.189957 310.187531,145.202499 
	C309.957916,151.525558 310.110535,157.863174 310.133484,164.194519 
	C310.147278,168.002136 311.815063,170.675629 315.763794,171.171829 
	C321.149170,171.848587 330.356049,163.721451 330.409149,158.330963 
	C330.479706,151.167145 330.146179,143.987625 330.515717,136.842224 
	C330.810669,131.138657 328.645142,127.862160 323.629608,124.981544 
	C279.838287,99.830276 236.140945,74.512566 192.610825,48.912518 
	C186.689178,45.429993 182.164444,44.816212 176.405457,48.916405 
	C169.863251,53.574223 169.592453,57.948101 176.546875,61.975178 
	C193.805984,71.969345 211.090408,81.919945 228.326035,91.954384 
	C236.771805,96.871445 236.614578,101.793594 228.042236,106.790245 
	C217.419144,112.982224 206.729599,119.073257 196.324219,125.614265 
	C194.331680,126.866814 192.058151,130.398026 192.536819,132.169220 
	C193.141342,134.406097 196.194412,136.410110 198.637115,137.597000 
	C200.936020,138.714020 203.913620,138.335938 206.415070,139.156738 
	C210.499725,140.497055 213.787033,139.317062 217.138443,137.055679 
	C223.616165,132.684784 230.233673,128.521088 237.422318,123.909805 
z"/>
<path fill="none" opacity="1.000000" stroke="none" 
	d="
M179.531342,1.000001 
	C179.095535,2.008797 178.373749,3.330923 177.259781,3.980372 
	C152.149857,18.619589 127.002953,33.195427 101.848633,47.758381 
	C93.521606,52.579269 93.394958,57.476101 101.569420,62.269073 
	C118.612350,72.261932 135.683670,82.206459 152.714081,92.220581 
	C160.878967,97.021645 160.703903,100.799873 152.943130,106.375778 
	C148.258774,109.741348 144.514435,110.000549 139.448746,106.927521 
	C118.443710,94.185112 97.145996,81.926170 76.055740,69.322388 
	C72.026939,66.914734 68.729271,66.797508 64.585693,69.257133 
	C45.747139,80.439667 26.724100,91.311150 7.792584,102.337723 
	C5.654147,103.583252 3.674458,105.101341 1.310578,106.246521 
	C1.000000,71.053978 1.000000,36.107964 1.000000,1.000000 
	C60.354130,1.000000 119.708405,1.000000 179.531342,1.000001 
z"/>
<path fill="none" opacity="1.000000" stroke="none" 
	d="
M1.000002,319.468658 
	C28.368279,334.668457 55.736553,350.336945 83.104721,366.005615 
	C84.112602,366.582703 85.099953,367.199005 86.129456,367.734375 
	C91.640549,370.600098 96.224586,367.949860 96.238281,361.780365 
	C96.282295,341.948242 96.242271,322.115936 96.277214,302.283783 
	C96.280403,300.471405 96.328789,298.588043 96.805336,296.861572 
	C97.988564,292.574921 101.607330,291.157806 105.718689,292.877411 
	C111.860252,295.446167 114.769180,299.307434 114.624596,306.567657 
	C114.153503,330.223633 114.540314,353.895477 114.367912,377.559570 
	C114.334709,382.117279 115.857399,384.872925 119.863541,387.143616 
	C139.659622,398.363770 159.312668,409.836487 178.996277,421.254395 
	C179.963043,421.815216 180.743027,422.698029 181.304993,423.715454 
	C121.092232,424.000000 61.184456,424.000000 1.000000,424.000000 
	C1.000000,389.312927 1.000000,354.625122 1.000002,319.468658 
z"/>
<path fill="none" opacity="1.000000" stroke="none" 
	d="
M368.000000,105.531342 
	C360.529480,101.760025 353.027222,97.574875 345.593536,93.271248 
	C294.482849,63.681412 243.384277,34.070595 192.297150,4.440080 
	C190.904037,3.632076 189.683899,2.525846 188.691559,1.279341 
	C248.574631,1.000000 308.149261,1.000000 368.000000,1.000000 
	C368.000000,35.687073 368.000000,70.374878 368.000000,105.531342 
z"/>
<path fill="none" opacity="1.000000" stroke="none" 
	d="
M190.468658,424.000000 
	C190.896301,422.987793 191.606842,421.658478 192.715591,421.008911 
	C249.131638,387.958313 305.583282,354.968414 362.020874,321.954651 
	C363.877625,320.868530 365.629700,319.603485 367.715271,318.710938 
	C368.000000,353.945831 368.000000,388.891663 368.000000,424.000000 
	C308.979218,424.000000 249.958267,424.000000 190.468658,424.000000 
z"/>
<path fill="none" opacity="1.000000" stroke="none" 
	d="
M368.000000,213.531342 
	C361.721619,210.013794 356.890076,213.735718 351.740295,216.808823 
	C336.778381,225.737228 321.702484,234.474625 306.667145,243.279831 
	C300.547760,246.863556 297.503052,246.698914 295.096466,242.686569 
	C292.442566,238.261993 294.131165,230.187775 298.373718,227.655075 
	C318.881989,215.412155 339.421600,203.221619 359.940948,190.997192 
	C362.489899,189.478668 364.984528,187.868988 367.752136,186.650757 
	C368.000000,195.687561 368.000000,204.375137 368.000000,213.531342 
z"/>
<path fill="none" opacity="1.000000" stroke="none" 
	d="
M105.359238,182.785339 
	C104.410530,180.971786 103.910362,179.323990 102.969711,177.985794 
	C97.761337,170.576157 101.588081,163.929932 105.132103,157.664673 
	C106.161530,155.844803 109.822670,154.689178 112.301247,154.647537 
	C128.121521,154.381760 143.948456,154.512161 159.773193,154.512161 
	C190.423218,154.512161 221.073242,154.511566 251.723267,154.512573 
	C259.462952,154.512833 259.724579,155.047226 262.713043,161.908340 
	C265.304688,167.858292 265.151733,173.136078 262.329224,179.022247 
	C260.230927,183.398087 257.756134,185.348831 252.885010,185.288498 
	C237.062714,185.092499 221.236450,185.209137 205.411713,185.218048 
	C198.617615,185.221878 196.826706,186.977386 196.825104,193.679672 
	C196.816666,228.993820 196.822083,264.307983 196.820221,299.622131 
	C196.819916,305.478210 191.056320,313.746735 185.540863,315.720093 
	C184.783401,315.991089 183.904648,316.017456 183.084595,316.003876 
	C177.599869,315.912933 169.230240,307.497284 169.229126,302.067078 
	C169.221802,266.419769 169.227783,230.772461 169.223526,195.125153 
	C169.222534,186.738144 167.770859,185.240753 159.414688,185.224152 
	C143.771240,185.193054 128.126694,185.301392 112.485268,185.120667 
	C110.184158,185.094070 107.897675,183.801071 105.359238,182.785339 
z"/>
<path fill="none" opacity="1.000000" stroke="none" 
	d="
M57.974846,267.000000 
	C57.974842,276.326233 58.006950,285.152588 57.965530,293.978638 
	C57.926437,302.308044 53.914841,304.316711 46.477100,301.046173 
	C39.382721,297.926605 37.552547,293.281464 37.617645,285.847534 
	C37.966122,246.049316 37.821819,206.246353 37.754532,166.445190 
	C37.736832,155.974564 37.454350,145.502594 37.158199,135.035080 
	C37.037766,130.778275 38.541424,127.862869 42.393631,125.722626 
	C49.794994,121.610519 56.960419,117.076019 64.273315,112.801613 
	C69.049149,110.010117 81.033737,115.323845 81.341667,120.762520 
	C81.468239,122.998001 79.572311,126.137299 77.636307,127.547012 
	C72.549667,131.250916 66.982590,134.311905 61.513958,137.467941 
	C58.297005,139.324509 56.954155,141.792969 56.994118,145.587250 
	C57.155468,160.906540 57.172966,176.229904 56.985680,191.548599 
	C56.936203,195.595093 58.536846,198.020660 61.874882,199.971313 
	C84.809464,213.373657 107.651512,226.934937 130.632645,240.256470 
	C134.627853,242.572357 136.213669,245.546509 136.039917,249.982758 
	C135.859695,254.583740 135.999771,259.197296 135.999771,264.626587 
	C126.256630,259.282959 117.144043,254.314102 108.058929,249.295471 
	C95.420708,242.314087 82.809029,235.284698 70.174500,228.296631 
	C62.103790,223.832764 57.977943,226.287949 57.975479,235.524384 
	C57.972729,245.849594 57.974850,256.174805 57.974846,267.000000 
z"/>
<path fill="none" opacity="1.000000" stroke="none" 
	d="
M316.248749,305.204224 
	C273.315460,329.921722 230.706558,354.470062 188.128372,379.071533 
	C185.240265,380.740295 182.656967,380.909515 179.751282,379.147003 
	C172.365219,374.666840 164.863388,370.377838 157.462570,365.921509 
	C152.784378,363.104584 150.938644,352.824524 154.339249,348.586426 
	C156.660187,345.693909 159.538864,345.289459 162.778900,347.133728 
	C168.263824,350.255829 173.835114,353.231079 179.252869,356.464417 
	C182.760330,358.557739 185.883347,358.585358 189.473694,356.467560 
	C203.067780,348.448914 216.752426,340.581696 230.476929,332.787628 
	C233.943069,330.819275 235.154892,328.196167 235.134842,324.245117 
	C235.001266,297.918793 235.062607,271.591461 235.067856,245.264450 
	C235.069031,239.308334 241.468887,232.366989 247.405014,231.853439 
	C251.352463,231.511963 254.029175,234.664871 254.043427,239.956787 
	C254.087845,256.452728 254.018723,272.948975 254.083023,289.444763 
	C254.105057,295.095306 254.405609,300.744507 254.552673,306.394958 
	C254.721497,312.881409 259.271851,315.622162 264.965912,312.398102 
	C275.375183,306.504150 285.673798,300.414795 296.020172,294.409729 
	C304.213776,289.654144 312.373535,284.838684 320.617096,280.171326 
	C326.339386,276.931488 330.367981,279.625275 331.037964,286.191742 
	C331.809631,293.754517 329.628845,299.094360 322.226196,301.897583 
	C320.232544,302.652557 318.456421,303.981964 316.248749,305.204224 
z"/>
<path fill="none" opacity="1.000000" stroke="none" 
	d="
M237.107788,124.090652 
	C230.233673,128.521088 223.616165,132.684784 217.138443,137.055679 
	C213.787033,139.317062 210.499725,140.497055 206.415070,139.156738 
	C203.913620,138.335938 200.936020,138.714020 198.637115,137.597000 
	C196.194412,136.410110 193.141342,134.406097 192.536819,132.169220 
	C192.058151,130.398026 194.331680,126.866814 196.324219,125.614265 
	C206.729599,119.073257 217.419144,112.982224 228.042236,106.790245 
	C236.614578,101.793594 236.771805,96.871445 228.326035,91.954384 
	C211.090408,81.919945 193.805984,71.969345 176.546875,61.975178 
	C169.592453,57.948101 169.863251,53.574223 176.405457,48.916405 
	C182.164444,44.816212 186.689178,45.429993 192.610825,48.912518 
	C236.140945,74.512566 279.838287,99.830276 323.629608,124.981544 
	C328.645142,127.862160 330.810669,131.138657 330.515717,136.842224 
	C330.146179,143.987625 330.479706,151.167145 330.409149,158.330963 
	C330.356049,163.721451 321.149170,171.848587 315.763794,171.171829 
	C311.815063,170.675629 310.147278,168.002136 310.133484,164.194519 
	C310.110535,157.863174 309.957916,151.525558 310.187531,145.202499 
	C310.333221,141.189957 308.710358,138.785904 305.300964,136.794189 
	C291.818115,128.917740 278.398499,120.927414 265.101440,112.742111 
	C261.130524,110.297729 257.914612,110.411240 254.150558,113.075455 
	C248.732620,116.910339 243.013123,120.319153 237.107788,124.090652 
z"/>
</svg>